<?xml version="1.0" encoding="utf-8"?>
<!-- Generator: Adobe Illustrator 22.0.1, SVG Export Plug-In . SVG Version: 6.00 Build 0)  -->
<svg version="1.1" id="Layer_1" xmlns="http://www.w3.org/2000/svg" xmlns:xlink="http://www.w3.org/1999/xlink" x="0px" y="0px"
	 viewBox="0 0 252 144" style="enable-background:new 0 0 252 144;" xml:space="preserve">
<style type="text/css">
	.st0{fill:#F2CAD8;}
	.st1{fill:#262826;}
</style>
<polygon class="st0" points="72.1,28.6 71.8,30.6 83.6,31.2 83.8,113.8 72.3,113.8 72.3,115.4 115.5,115.1 115.3,113.4 104.8,113.6 
	104.8,30.6 115.6,30.6 115.3,28.4 "/>
<polygon class="st0" points="130.5,28.9 130.3,31 142,31.5 142.3,114.1 130.8,114.1 130.8,115.7 173.9,115.5 173.7,113.8 
	163.2,113.9 163.2,31 174,31 173.7,28.8 "/>
<path class="st1" d="M78.6,42.7v4.2c0,0-37.9-1.8-33.7,29.3s50.7,20.1,57.8,16c7.1-4.2,13.1-9.9,22.2-19.4s11.8-15.4,22-21.2
	c10.2-5.8,18.3-7.1,29.8-6.8s23,5.2,28.5,13.9s3.4,25.4-4.7,31.4c-8.1,6-18.8,6.5-24.3,6.8s-6.5,0-6.5,0v-4.2c0,0,15.2,2.1,25.6-4.2
	s9.2-23.5,5.2-28.5s-9.2-11-29.8-11.5c-20.7-0.5-36.9,20.7-39.2,23.3c-2.4,2.6-13.6,20.1-35.8,27.2c-22.2,7.1-39.2-0.5-44.7-4.2
	s-14.1-13.6-9.7-33S78.6,42.7,78.6,42.7z"/>
</svg>
