<?xml version="1.0" encoding="utf-8"?>
<!-- Generator: Adobe Illustrator 22.0.1, SVG Export Plug-In . SVG Version: 6.00 Build 0)  -->
<svg version="1.1" id="Logo" xmlns="http://www.w3.org/2000/svg" xmlns:xlink="http://www.w3.org/1999/xlink" x="0px" y="0px"
	 viewBox="0 0 110.9 53.5" style="enable-background:new 0 0 110.9 53.5;" xml:space="preserve">
<style type="text/css">
	.st0{fill:#F2CAD8;}
	.st1{fill:#262826;}
	.st2{font-family:'BebasNeueBook';}
	.st3{font-size:15.6px;}
</style>
<polygon class="st0" points="12.3,12.6 12.2,13.3 16.3,13.5 16.3,41.9 12.4,41.9 12.4,42.4 27.2,42.3 27.1,41.8 23.5,41.8 
	23.5,13.3 27.2,13.3 27.1,12.6 "/>
<polygon class="st0" points="32.4,12.7 32.3,13.4 36.3,13.6 36.4,42 32.5,42 32.5,42.5 47.3,42.5 47.2,41.9 43.6,41.9 43.6,13.4 
	47.3,13.4 47.2,12.7 "/>
<path class="st1" d="M14.6,17.5v1.4c0,0-13-0.6-11.6,10.1s17.4,6.9,19.9,5.5s4.5-3.4,7.6-6.6s4-5.3,7.5-7.3s6.3-2.4,10.2-2.3
	c4,0.1,7.9,1.8,9.8,4.8c1.9,3,1.2,8.7-1.6,10.8S50,36,48.1,36.1c-1.9,0.1-2.2,0-2.2,0v-1.4c0,0,5.2,0.7,8.8-1.4
	c3.6-2.2,3.1-8.1,1.8-9.8c-1.3-1.7-3.1-3.8-10.2-4c-7.1-0.2-12.7,7.1-13.5,8c-0.8,0.9-4.7,6.9-12.3,9.3C12.8,39.2,6.9,36.6,5,35.3
	C3.1,34.1,0.2,30.7,1.7,24S14.6,17.5,14.6,17.5z"/>
<text transform="matrix(1 0 0 1 62.4372 23.8378)"><tspan x="0" y="0" class="st1 st2 st3">Hillary</tspan><tspan x="0" y="18.7" class="st1 st2 st3">Strong</tspan></text>
</svg>
